<svg width="41" height="41" viewBox="0 0 41 41" fill="none" xmlns="http://www.w3.org/2000/svg">
<rect x="0.5" y="0.5" width="40" height="40" rx="1.5" fill="url(#paint0_radial_167_196)"/>
<rect x="0.5" y="0.5" width="40" height="40" rx="1.5" stroke="#005C99"/>
<path d="M31.4375 10.3438H9.5625C9.3553 10.3438 9.15659 10.4261 9.01007 10.5726C8.86356 10.7191 8.78125 10.9178 8.78125 11.125V26.75C8.78125 26.9572 8.86356 27.1559 9.01007 27.3024C9.15659 27.4489 9.3553 27.5312 9.5625 27.5312H17.7656V29.0938H14.25V30.6562H26.75V29.0938H23.2344V27.5312H31.4375C31.6447 27.5312 31.8434 27.4489 31.9899 27.3024C32.1364 27.1559 32.2188 26.9572 32.2188 26.75V11.125C32.2188 10.9178 32.1364 10.7191 31.9899 10.5726C31.8434 10.4261 31.6447 10.3438 31.4375 10.3438ZM30.4609 12.1016V22.6484H10.5391V12.1016H30.4609ZM19.7251 25.2891C19.7039 25.1273 19.734 24.9629 19.811 24.819C19.888 24.6752 20.0081 24.559 20.1545 24.4869C20.3009 24.4148 20.4662 24.3903 20.6272 24.417C20.7882 24.4436 20.9368 24.5199 21.0522 24.6353C21.1676 24.7507 21.2439 24.8993 21.2705 25.0603C21.2972 25.2213 21.2727 25.3866 21.2006 25.533C21.1285 25.6794 21.0123 25.7995 20.8685 25.8765C20.7246 25.9535 20.5602 25.9836 20.3984 25.9624C20.2277 25.9401 20.0691 25.8619 19.9473 25.7402C19.8256 25.6184 19.7474 25.4598 19.7251 25.2891Z" fill="#00AAFF"/>
<defs>
<radialGradient id="paint0_radial_167_196" cx="0" cy="0" r="1" gradientUnits="userSpaceOnUse" gradientTransform="translate(20.5 20.5) rotate(90) scale(20.5)">
<stop stop-color="#002137"/>
<stop offset="1" stop-color="#052A43"/>
</radialGradient>
</defs>
</svg>
