<svg width="41" height="41" viewBox="0 0 41 41" fill="none" xmlns="http://www.w3.org/2000/svg">
<rect x="0.5" y="0.5" width="40" height="40" rx="1.5" fill="url(#paint0_radial_167_84)"/>
<rect x="0.5" y="0.5" width="40" height="40" rx="1.5" stroke="#005C99"/>
<path d="M18.9375 19.3281C18.9375 18.9137 19.1021 18.5163 19.3951 18.2233C19.6882 17.9302 20.0856 17.7656 20.5 17.7656C20.9144 17.7656 21.3118 17.9302 21.6049 18.2233C21.8979 18.5163 22.0625 18.9137 22.0625 19.3281M29.875 17.7656H30.6562M29.875 17.7656C29.875 22.4531 29.0938 24.0156 25.9688 24.0156C22.8438 24.0156 22.0625 22.4531 22.0625 17.7656C22.0625 17.7656 22.8438 16.9844 25.9688 16.9844C29.0938 16.9844 29.875 17.7656 29.875 17.7656ZM11.125 17.7656H10.3438M11.125 17.7656C11.125 22.4531 11.9062 24.0156 15.0312 24.0156C18.1562 24.0156 18.9375 22.4531 18.9375 17.7656C18.9375 17.7656 18.1562 16.9844 15.0312 16.9844C11.9062 16.9844 11.125 17.7656 11.125 17.7656Z" stroke="#00AAFF" stroke-width="2" stroke-linecap="round" stroke-linejoin="round"/>
<defs>
<radialGradient id="paint0_radial_167_84" cx="0" cy="0" r="1" gradientUnits="userSpaceOnUse" gradientTransform="translate(20.5 20.5) rotate(90) scale(20.5)">
<stop stop-color="#002137"/>
<stop offset="1" stop-color="#052A43"/>
</radialGradient>
</defs>
</svg>
