<svg width="41" height="41" viewBox="0 0 41 41" fill="none" xmlns="http://www.w3.org/2000/svg">
<rect x="0.5" y="0.5" width="40" height="40" rx="1.5" fill="url(#paint0_radial_167_204)"/>
<rect x="0.5" y="0.5" width="40" height="40" rx="1.5" stroke="#005C99"/>
<path d="M25.9688 28.3057V11.5156C25.9678 11.2051 25.8441 10.9076 25.6245 10.688C25.4049 10.4684 25.1074 10.3447 24.7969 10.3438H11.5156C11.2051 10.3447 10.9076 10.4684 10.688 10.688C10.4684 10.9076 10.3447 11.2051 10.3438 11.5156V28.7031C10.3453 29.2207 10.5516 29.7165 10.9175 30.0825C11.2835 30.4484 11.7793 30.6547 12.2969 30.6562H28.3125" stroke="#00AAFF" stroke-width="2" stroke-linejoin="round"/>
<path d="M28.3125 30.6562C27.6909 30.6562 27.0948 30.4093 26.6552 29.9698C26.2157 29.5302 25.9688 28.9341 25.9688 28.3125V14.25H29.4844C29.7952 14.25 30.0932 14.3735 30.313 14.5932C30.5328 14.813 30.6562 15.1111 30.6562 15.4219V28.3125C30.6562 28.9341 30.4093 29.5302 29.9698 29.9698C29.5302 30.4093 28.9341 30.6562 28.3125 30.6562Z" stroke="#00AAFF" stroke-width="2" stroke-linejoin="round"/>
<path d="M19.7188 14.25H22.8438M19.7188 17.375H22.8438M13.4688 20.5H22.8438M13.4688 23.625H22.8438M13.4688 26.75H22.8438" stroke="#00AAFF" stroke-width="2" stroke-linecap="round" stroke-linejoin="round"/>
<path d="M16.5938 18.1562H13.4688C13.2615 18.1562 13.0628 18.0739 12.9163 17.9274C12.7698 17.7809 12.6875 17.5822 12.6875 17.375V14.25C12.6875 14.0428 12.7698 13.8441 12.9163 13.6976C13.0628 13.5511 13.2615 13.4688 13.4688 13.4688H16.5938C16.801 13.4688 16.9997 13.5511 17.1462 13.6976C17.2927 13.8441 17.375 14.0428 17.375 14.25V17.375C17.375 17.5822 17.2927 17.7809 17.1462 17.9274C16.9997 18.0739 16.801 18.1562 16.5938 18.1562Z" fill="#00AAFF"/>
<defs>
<radialGradient id="paint0_radial_167_204" cx="0" cy="0" r="1" gradientUnits="userSpaceOnUse" gradientTransform="translate(20.5 20.5) rotate(90) scale(20.5)">
<stop stop-color="#002137"/>
<stop offset="1" stop-color="#052A43"/>
</radialGradient>
</defs>
</svg>
