<svg width="41" height="41" viewBox="0 0 41 41" fill="none" xmlns="http://www.w3.org/2000/svg">
<rect x="0.5" y="0.5" width="40" height="40" rx="1.5" fill="url(#paint0_radial_167_1321)"/>
<rect x="0.5" y="0.5" width="40" height="40" rx="1.5" stroke="#005C99"/>
<path d="M12.0527 26.75C11.418 25.1387 10.3438 22.1909 10.3438 20.5C10.3438 14.8906 15.2915 10.3438 20.5 10.3438C25.7085 10.3438 30.6562 14.8906 30.6562 20.5C30.6562 22.1909 29.5332 25.2363 28.9473 26.75" stroke="#00AAFF" stroke-width="2" stroke-linecap="round" stroke-linejoin="round"/>
<path d="M13.2924 21.1899L12.624 21.5806C11.1479 22.4448 11.0761 25.1162 12.4589 27.5474C13.8417 29.9785 16.1635 31.249 17.6396 30.3853L18.3081 29.9946C18.4855 29.889 18.6144 29.718 18.6672 29.5183C18.7199 29.3187 18.6923 29.1063 18.5903 28.9268L14.3476 21.4766C14.2976 21.388 14.2305 21.3103 14.1502 21.2478C14.0699 21.1854 13.978 21.1395 13.8799 21.1129C13.7817 21.0862 13.6793 21.0793 13.5784 21.0925C13.4776 21.1057 13.3804 21.1389 13.2924 21.1899ZM27.7075 21.1899L28.3759 21.5806C29.852 22.4443 29.9257 25.1157 28.541 27.5469C27.1562 29.978 24.8364 31.2485 23.3603 30.3848L22.6918 29.9941C22.5144 29.8885 22.3855 29.7175 22.3327 29.5178C22.28 29.3182 22.3076 29.1058 22.4096 28.9263L26.6523 21.4766C26.7023 21.388 26.7694 21.3103 26.8497 21.2478C26.93 21.1854 27.0219 21.1395 27.12 21.1129C27.2182 21.0862 27.3206 21.0793 27.4215 21.0925C27.5223 21.1057 27.6195 21.1389 27.7075 21.1899Z" stroke="#00AAFF" stroke-width="2" stroke-miterlimit="10"/>
<defs>
<radialGradient id="paint0_radial_167_1321" cx="0" cy="0" r="1" gradientUnits="userSpaceOnUse" gradientTransform="translate(20.5 20.5) rotate(90) scale(20.5)">
<stop stop-color="#002137"/>
<stop offset="1" stop-color="#052A43"/>
</radialGradient>
</defs>
</svg>
